<svg width="23" height="21" viewBox="0 0 23 21" fill="none" xmlns="http://www.w3.org/2000/svg">
<g clip-path="url(#clip0_19_112)">
<path d="M11.5532 7.17411L14.6419 10.1802L14.6566 10.0228C14.6566 8.44335 13.3378 7.15979 11.715 7.15979L11.5532 7.17411Z" fill="black"/>
<path d="M11.715 5.25116C14.4212 5.25116 16.6176 7.38887 16.6176 10.0228C16.6176 10.6384 16.4902 11.2253 16.2696 11.7645L19.1376 14.5559C20.6182 13.3534 21.7851 11.7979 22.5058 10.0228C20.8045 5.83333 16.6226 2.86536 11.715 2.86536C10.3423 2.86536 9.02838 3.10392 7.80762 3.53337L9.92556 5.58993C10.4795 5.38 11.0825 5.25116 11.715 5.25116Z" fill="black"/>
<path d="M1.90971 2.65061L4.14532 4.82648L4.59148 5.26071C2.97361 6.49179 1.69401 8.12848 0.929199 10.0228C2.62553 14.2123 6.81238 17.1803 11.7151 17.1803C13.2349 17.1803 14.6861 16.894 16.0147 16.3738L16.4314 16.7794L19.2897 19.5661L20.5399 18.3541L3.15989 1.43384L1.90971 2.65061ZM7.33208 7.92329L8.847 9.39772C8.80288 9.60292 8.77346 9.80807 8.77346 10.0228C8.77346 11.6022 10.0923 12.8858 11.7151 12.8858C11.9357 12.8858 12.1465 12.8572 12.3524 12.8142L13.8673 14.2886C13.2153 14.6036 12.4897 14.7945 11.7151 14.7945C9.00879 14.7945 6.81238 12.6567 6.81238 10.0228C6.81238 9.26889 7.0085 8.56267 7.33208 7.92329Z" fill="black"/>
</g>
<defs>
<clipPath id="clip0_19_112">
<rect width="21.5766" height="21" fill="white" transform="translate(0.929199)"/>
</clipPath>
</defs>
</svg>
